<?xml version="1.0" encoding="UTF-8"?>
<svg xmlns="http://www.w3.org/2000/svg" xmlns:xlink="http://www.w3.org/1999/xlink" viewBox="0 0 569.78 435.36">
  <defs>
    <style>
      .cls-1 {
        fill: url(#linear-gradient);
      }

      .cls-1, .cls-2, .cls-3, .cls-4, .cls-5, .cls-6, .cls-7, .cls-8, .cls-9, .cls-10 {
        stroke-width: 0px;
      }

      .cls-2 {
        fill: url(#linear-gradient-6);
      }

      .cls-3 {
        fill: url(#linear-gradient-4);
      }

      .cls-3, .cls-10 {
        mix-blend-mode: color-burn;
        opacity: .5;
      }

      .cls-11 {
        isolation: isolate;
      }

      .cls-4 {
        fill: url(#linear-gradient-5);
      }

      .cls-5 {
        fill: url(#New_Gradient_Swatch_1-3);
      }

      .cls-6 {
        fill: url(#New_Gradient_Swatch_1);
      }

      .cls-7 {
        fill: url(#linear-gradient-7);
      }

      .cls-8 {
        fill: url(#linear-gradient-3);
      }

      .cls-9 {
        fill: url(#New_Gradient_Swatch_1-2);
      }

      .cls-10 {
        fill: url(#linear-gradient-2);
      }

      .cls-12 {
        fill: #fff;
        font-family: ToxigenesisRg-Bold, Toxigenesis;
        font-size: 89.18px;
        font-weight: 700;
        letter-spacing: .1em;
      }
    </style>
    <linearGradient id="New_Gradient_Swatch_1" data-name="New Gradient Swatch 1" x1="266.61" y1="152.04" x2="383.39" y2="152.04" gradientUnits="userSpaceOnUse">
      <stop offset="0" stop-color="#823288"/>
      <stop offset=".27" stop-color="#932f88"/>
      <stop offset=".49" stop-color="#9e2e89"/>
      <stop offset=".57" stop-color="#ac2c87"/>
      <stop offset=".71" stop-color="#be2a86"/>
      <stop offset=".85" stop-color="#ca2985"/>
      <stop offset="1" stop-color="#ce2985"/>
    </linearGradient>
    <linearGradient id="New_Gradient_Swatch_1-2" data-name="New Gradient Swatch 1" x1="300.75" y1="157.53" x2="475.56" y2="157.53" xlink:href="#New_Gradient_Swatch_1"/>
    <linearGradient id="New_Gradient_Swatch_1-3" data-name="New Gradient Swatch 1" x1="387.09" y1="98.71" x2="569.78" y2="98.71" xlink:href="#New_Gradient_Swatch_1"/>
    <linearGradient id="linear-gradient" x1="293.56" y1="331.66" x2="163.5" y2="22.06" gradientUnits="userSpaceOnUse">
      <stop offset="0" stop-color="#477dbf"/>
      <stop offset="1" stop-color="#e52390"/>
    </linearGradient>
    <linearGradient id="linear-gradient-2" x1="193.74" y1="49.79" x2="134.08" y2="232.45" gradientUnits="userSpaceOnUse">
      <stop offset="0" stop-color="#3c459c"/>
      <stop offset="1" stop-color="#e52390" stop-opacity="0"/>
    </linearGradient>
    <linearGradient id="linear-gradient-3" x1="341.79" y1="230.19" x2="-20.73" y2="230.19" gradientUnits="userSpaceOnUse">
      <stop offset="0" stop-color="#477dbf"/>
      <stop offset="1" stop-color="#6ebe45"/>
    </linearGradient>
    <linearGradient id="linear-gradient-4" x1="177.59" y1="44.52" x2="117.93" y2="227.17" xlink:href="#linear-gradient-2"/>
    <linearGradient id="linear-gradient-5" x1="2.34" y1="172.47" x2="208.73" y2="172.47" gradientUnits="userSpaceOnUse">
      <stop offset="0" stop-color="#f89847"/>
      <stop offset="1" stop-color="#e52390"/>
    </linearGradient>
    <linearGradient id="linear-gradient-6" y1="172.48" x2="208.72" y2="172.48" xlink:href="#linear-gradient-5"/>
    <linearGradient id="linear-gradient-7" x1="157.11" y1="46.99" x2="54.95" y2="281.54" gradientUnits="userSpaceOnUse">
      <stop offset="0" stop-color="#e52390"/>
      <stop offset="1" stop-color="#477dbf" stop-opacity="0"/>
    </linearGradient>
  </defs>
  <g class="cls-11">
    <g id="Layer_2" data-name="Layer 2">
      <g id="Layer_1-2" data-name="Layer 1">
        <g>
          <polygon class="cls-6" points="266.61 177.35 266.61 69.19 337.69 69.19 354.54 90.93 299.14 90.93 299.39 114.38 372.67 114.89 383.39 126.38 372.16 141.19 299.14 141.7 298.63 234.89 266.61 202.47 266.61 177.35"/>
          <polygon class="cls-9" points="305.61 231.83 399.73 128 351.22 69.19 411.31 69.19 429.61 90.83 448.24 69.19 475.56 69.19 467.39 79.91 453.35 79.66 430.12 108 406.12 79.66 375.22 79.91 414.29 127.47 308.33 245.87 300.75 237.19 305.61 231.83"/>
          <polygon class="cls-5" points="413.84 197.43 387.09 197.43 396.29 185.81 409.18 185.81 432.75 156.77 457.61 185.87 487.9 185.7 448.24 138.38 569.78 0 569.78 17.53 463.82 138 512.84 197.43 452.2 197.43 433.31 175.4 413.84 197.43"/>
        </g>
        <g>
          <text class="cls-12" transform="translate(0 406.73) scale(.99 1)"><tspan x="0" y="0">AmplyFX</tspan></text>
          <path class="cls-1" d="M326.55,311.26h-76.34l-85.78-192.09-28.81-64.52c19.28-13.37,42.55-20.95,66.98-20.95l123.95,277.57Z"/>
          <polygon class="cls-10" points="197.63 44.85 172.11 136.34 164.45 119.19 197.63 44.85"/>
          <path class="cls-8" d="M164.43,149.15C74.92,149.15,2.34,221.73,2.34,311.24h0c36.65,0,70.63-18.4,91.42-48.58,15.46-22.45,41.35-37.17,70.67-37.17,47.39,0,85.78,38.4,85.78,85.76h76.34c0-89.52-72.58-162.09-162.12-162.09Z"/>
          <path class="cls-3" d="M167.89,149.2l-26.06,79.29c-20.86,5.69-38.54,19.03-49.84,36.85l-11.16.47,57.84-114.62c8.38-1.35,16.99-2.03,25.77-2.03,1.15,0,2.3,0,3.46.05Z"/>
          <g>
            <path class="cls-4" d="M202.58,33.71l-38.02,85.21-54.76,122.61c-18.94,42.41-61.04,69.72-107.46,69.72L95.12,103.4c8.99-20.13,23.24-36.89,40.68-48.88,19.25-13.29,42.41-20.81,66.78-20.81Z"/>
            <path class="cls-2" d="M202.57,33.71l-38.03,85.2-26.36,59.01-21.13,47.37-7.26,16.23c-18.95,42.42-61.05,69.73-107.46,69.73l53.67-120.26,18.73-41.97,20.37-45.63c9-20.13,23.24-36.87,40.7-48.86,19.25-13.29,42.39-20.82,66.76-20.82Z"/>
            <path class="cls-7" d="M202.57,33.71l-38.03,85.2-54.75,122.61c-18.95,42.42-61.05,69.73-107.46,69.73,41.31-15.45,62.27-63.01,62.27-63.01l71.3-152.01c23.81-50.6,66.66-62.52,66.66-62.52Z"/>
          </g>
        </g>
      </g>
    </g>
  </g>
</svg>